# xmcd CD database file
#
# Track frame offsets:
#	150
#	17162
#	40540
#	68785
#	86735
#	101062
#	121110
#	134762
#	151687
#
# Disc length: 2314 seconds
#
# Revision: 0
# Processed by: cddbd v1.5.1PL0 Copyright (c) Steve Scherf et al.
# Submitted via: CDex 1.51
#
DISCID=6d090809
DTITLE=安部　恭弘 - SLIT
DYEAR=1900
DGENRE=JPop
TTITLE0=Thrill Down
TTITLE1=Irene
TTITLE2=My Dear
TTITLE3=New York Night
TTITLE4=Double Imagination
TTITLE5=Heart Trick
TTITLE6='Cause I Love You
TTITLE7=Sunairo no Yoake
TTITLE8=Kimi no Ai ga Subete
EXTD=
EXTT0=
EXTT1=
EXTT2=
EXTT3=
EXTT4=
EXTT5=
EXTT6=
EXTT7=
EXTT8=
PLAYORDER=
